<?xml version="1.0" encoding="UTF-8"?>
<svg xmlns="http://www.w3.org/2000/svg" viewBox="0 0 250 37.45">
  <defs>
    <style>
      .cls-1 {
        fill: #000;
        stroke: #000;
        stroke-width: 2.5px;
      }
    </style>
  </defs>
  <g id="Calque_1" data-name="Calque 1" shape-rendering="crispEdges">
    <path class="cls-1" d="M12.4.62h3.1M16.53.62h6.2M23.76.62h1.03M98.14.62h1.03M100.21.62h1.03M102.27.62h3.1M141.53.62h7.23M149.79.62h1.03M226.24.62h5.17M232.44.62h1.03M6.2,1.65h6.2M87.81,1.65h3.1M160.12,1.65h6.2M236.57,1.65h4.13M2.07,2.68h9.3M78.51,2.68h9.3M150.83,2.68h1.03M152.89,2.68h4.13M159.09,2.68h14.46M240.7,2.68h5.17M3.1,3.72h7.23M77.48,3.72h1.03M79.55,3.72h8.26M149.79,3.72h3.1M153.93,3.72h5.17M160.12,3.72h1.03M162.19,3.72h10.33M240.7,3.72h5.17M1.03,4.75h8.26M10.33,4.75h1.03M74.38,4.75h19.63M95.04,4.75h2.07M99.17,4.75h1.03M142.56,4.75h4.13M148.76,4.75h1.03M150.83,4.75h1.03M161.16,4.75h7.23M169.42,4.75h7.23M241.74,4.75h5.17M0,5.78h7.23M10.33,5.78h2.07M67.15,5.78h27.89M100.21,5.78h6.2M140.5,5.78h4.13M151.86,5.78h15.5M171.49,5.78h10.33M240.7,5.78h9.3M1.03,6.82h9.3M24.79,6.82h8.26M34.09,6.82h1.03M36.16,6.82h1.03M38.22,6.82h1.03M40.29,6.82h1.03M42.36,6.82h1.03M44.42,6.82h1.03M46.49,6.82h1.03M49.59,6.82h4.13M54.75,6.82h26.86M92.98,6.82h2.07M96.07,6.82h3.1M139.46,6.82h1.03M147.73,6.82h1.03M149.79,6.82h5.17M165.29,6.82h20.66M186.98,6.82h1.03M195.25,6.82h1.03M236.57,6.82h1.03M238.64,6.82h1.03M243.8,6.82h6.2M2.07,7.85h15.5M25.83,7.85h4.13M51.65,7.85h3.1M61.98,7.85h15.5M96.07,7.85h2.07M99.17,7.85h1.03M109.5,7.85h1.03M129.13,7.85h2.07M146.69,7.85h1.03M148.76,7.85h3.1M170.45,7.85h16.53M200.41,7.85h1.03M227.27,7.85h3.1M240.7,7.85h8.26M3.1,8.88h14.46M25.83,8.88h4.13M51.65,8.88h3.1M61.98,8.88h14.46M96.07,8.88h1.03M98.14,8.88h2.07M129.13,8.88h1.03M147.73,8.88h3.1M170.45,8.88h1.03M172.52,8.88h14.46M200.41,8.88h1.03M227.27,8.88h2.07M240.7,8.88h8.26M6.2,9.91h69.21M97.11,9.91h5.17M113.64,9.91h3.1M120.87,9.91h2.07M127.07,9.91h1.03M135.33,9.91h1.03M145.66,9.91h4.13M172.52,9.91h33.06M230.37,9.91h14.46M10.33,10.95h64.05M99.17,10.95h5.17M114.67,10.95h3.1M120.87,10.95h8.26M133.26,10.95h2.07M145.66,10.95h3.1M174.59,10.95h66.12M16.53,11.98h55.79M100.21,11.98h3.1M104.34,11.98h2.07M108.47,11.98h1.03M110.54,11.98h1.03M112.6,11.98h5.17M118.8,11.98h1.03M120.87,11.98h7.23M129.13,11.98h2.07M133.26,11.98h1.03M135.33,11.98h1.03M137.4,11.98h2.07M141.53,11.98h1.03M143.6,11.98h1.03M145.66,11.98h2.07M175.62,11.98h57.85M24.79,13.01h47.52M100.21,13.01h1.03M105.37,13.01h38.22M148.76,13.01h1.03M177.69,13.01h46.49M25.83,14.05h45.45M100.21,14.05h1.03M105.37,14.05h14.46M122.93,14.05h1.03M125,14.05h1.03M127.07,14.05h1.03M129.13,14.05h15.5M147.73,14.05h3.1M176.65,14.05h48.55M34.09,15.08h1.03M36.16,15.08h35.12M97.11,15.08h14.46M112.6,15.08h3.1M116.74,15.08h3.1M129.13,15.08h3.1M133.26,15.08h18.6M176.65,15.08h1.03M178.72,15.08h32.02M211.78,15.08h1.03M57.85,16.11h1.03M59.92,16.11h12.4M99.17,16.11h12.4M112.6,16.11h2.07M134.3,16.11h17.56M178.72,16.11h7.23M186.98,16.11h2.07M190.08,16.11h1.03M50.62,17.15h21.69M73.35,17.15h2.07M100.21,17.15h9.3M135.33,17.15h2.07M139.46,17.15h10.33M177.69,17.15h10.33M189.05,17.15h7.23M49.59,18.18h25.83M102.27,18.18h1.03M105.37,18.18h3.1M135.33,18.18h1.03M139.46,18.18h2.07M143.6,18.18h1.03M146.69,18.18h3.1M178.72,18.18h7.23M188.02,18.18h8.26M50.62,19.21h25.83M79.55,19.21h4.13M114.67,19.21h1.03M134.3,19.21h2.07M175.62,19.21h20.66M55.79,20.25h28.93M110.54,20.25h28.93M170.45,20.25h21.69M193.18,20.25h1.03M59.92,21.28h23.76M84.71,21.28h1.03M86.78,21.28h2.07M90.91,21.28h1.03M92.98,21.28h1.03M114.67,21.28h18.6M150.83,21.28h1.03M152.89,21.28h2.07M157.02,21.28h1.03M159.09,21.28h1.03M161.16,21.28h2.07M165.29,21.28h1.03M167.36,21.28h1.03M169.42,21.28h18.6M67.15,22.31h25.83M108.47,22.31h1.03M110.54,22.31h1.03M114.67,22.31h19.63M135.33,22.31h1.03M139.46,22.31h1.03M158.06,22.31h23.76M67.15,23.34h25.83M108.47,23.34h3.1M112.6,23.34h3.1M116.74,23.34h3.1M120.87,23.34h3.1M125,23.34h3.1M129.13,23.34h3.1M133.26,23.34h3.1M137.4,23.34h3.1M158.06,23.34h23.76M71.28,24.38h22.73M142.56,24.38h1.03M154.96,24.38h21.69M77.48,25.41h94.01M84.71,26.44h81.61M87.81,27.48h1.03M89.88,27.48h25.83M125,27.48h1.03M135.33,27.48h27.89M88.84,28.51h14.46M104.34,28.51h11.36M125,28.51h1.03M135.33,28.51h9.3M145.66,28.51h15.5M92.98,29.54h9.3M104.34,29.54h2.07M107.44,29.54h8.26M135.33,29.54h8.26M144.63,29.54h1.03M146.69,29.54h11.36M98.14,30.58h7.23M106.4,30.58h10.33M134.3,30.58h8.26M144.63,30.58h8.26M102.27,31.61h5.17M112.6,31.61h5.17M131.2,31.61h4.13M136.36,31.61h4.13M141.53,31.61h6.2M105.37,32.64h25.83M135.33,32.64h8.26M105.37,33.68h25.83M135.33,33.68h7.23M107.44,34.71h32.02M109.5,35.74h25.83M116.74,36.77h12.4"/>
  </g>
</svg>