<?xml version="1.0" encoding="UTF-8"?>
<svg id="ios7_arrows" xmlns="http://www.w3.org/2000/svg" viewBox="0 0 157.6 146.29">
  <defs>
    <style>
      .cls-1 {
        fill: #000;
        stroke-width: 0px;
      }
    </style>
  </defs>
  <polygon class="cls-1" points="0 146.29 61.35 146.29 0 135.2 0 146.29"/>
  <polygon class="cls-1" points="0 11.02 61.35 0 0 0 0 11.02"/>
  <path class="cls-1" d="M61.35,66.62l13.42-3.47,4.65-14.52c.41-1.07.83-2.55,2.1-3.37l9.26-6.95c.41-.41.86-.62,1.48-.83l17.07-5.47c.86-.21,1.89-.41,2.96-.41s2.1.45,3.17,1.07l20.24,10.53c2.1,1.27,2.96,4.23,1.89,6.33-1.27,2.31-4.44,3.58-6.95,2.1l-19.38-9.71-10.74,3.79,14.73,24.02c3.13,5.27,1.48,10.53-2.96,13.29l-16.42,12.43,10.95,26.33c1.48,3.13-.62,6.71-3.79,7.78-3.17,1.07-6.3-.83-7.37-3.58l-12.63-29.08c-1.45-4.03-1.03-6.95,2.75-10.12l12.22-9.26s-10.74-17.69-11.15-18.1l-4.85,10.74c-.65,1.27-1.69,2.34-3.17,2.75l-17.48,3.87v69.53h96.24V0H61.35v66.62ZM157.59,91.27c.21,2.72-2.31,5.89-5.47,6.09l-25.5.41c-3.37.21-5.06-.83-7.57-3.79l-6.54-8.19,9.91-8.02,5.47,7.4,23.37.21c3.58,0,6.13,2.1,6.33,5.89ZM78.63,13.76c6.54,0,11.36,5.3,11.36,11.6s-5.03,11.36-11.36,11.36-11.6-5.03-11.6-11.36,5.27-11.6,11.6-11.6Z"/>
  <path class="cls-1" d="M55.42,73.14c0-2.71-1.69-4.9-3.77-4.9s-3.77,2.2-3.77,4.9,1.69,4.9,3.77,4.9,3.77-2.2,3.77-4.9Z"/>
</svg>